<svg width="15" height="15" fill="none" xmlns="http://www.w3.org/2000/svg"><path d="M9.037 3.485a3.106 3.106 0 0 1 2.454 2.453L9.037 3.485Zm0-2.485a5.59 5.59 0 0 1 4.938 4.932L9.037 1Zm4.317 9.89v1.863A1.243 1.243 0 0 1 12 13.995a12.294 12.294 0 0 1-5.36-1.907 12.114 12.114 0 0 1-3.728-3.727 12.293 12.293 0 0 1-1.907-5.386 1.242 1.242 0 0 1 1.236-1.354h1.864A1.242 1.242 0 0 1 5.347 2.69c.079.596.225 1.182.435 1.745a1.242 1.242 0 0 1-.28 1.31l-.789.79a9.939 9.939 0 0 0 3.727 3.727l.79-.79a1.242 1.242 0 0 1 1.31-.279c.564.21 1.15.356 1.746.435a1.242 1.242 0 0 1 1.068 1.261Z" stroke="#fff" stroke-linecap="round" stroke-linejoin="round"/></svg>