<svg width="29" height="25" fill="none" xmlns="http://www.w3.org/2000/svg"><g filter="url(#a)"><path d="M23.64 1.008c-.8.565-1.686.997-2.624 1.28a3.745 3.745 0 0 0-6.57 2.507v.836a8.911 8.911 0 0 1-7.524-3.787s-3.344 7.524 4.18 10.868a9.73 9.73 0 0 1-5.852 1.672c7.524 4.18 16.719 0 16.719-9.614 0-.233-.023-.465-.067-.694a6.454 6.454 0 0 0 1.739-3.068v0Z" stroke="#fff" stroke-linecap="round" stroke-linejoin="round" shape-rendering="crispEdges"/></g><defs><filter id="a" x=".75" y=".5" width="27.377" height="24" filterUnits="userSpaceOnUse" color-interpolation-filters="sRGB"><feFlood flood-opacity="0" result="BackgroundImageFix"/><feColorMatrix in="SourceAlpha" values="0 0 0 0 0 0 0 0 0 0 0 0 0 0 0 0 0 0 127 0" result="hardAlpha"/><feOffset dy="4"/><feGaussianBlur stdDeviation="2"/><feComposite in2="hardAlpha" operator="out"/><feColorMatrix values="0 0 0 0 0 0 0 0 0 0 0 0 0 0 0 0 0 0 0.25 0"/><feBlend in2="BackgroundImageFix" result="effect1_dropShadow_1_247"/><feBlend in="SourceGraphic" in2="effect1_dropShadow_1_247" result="shape"/></filter></defs></svg>