<svg width="28" height="23" fill="none" xmlns="http://www.w3.org/2000/svg"><g filter="url(#a)" stroke="#fff" stroke-linecap="round" stroke-linejoin="round"><path d="M22.264 2.98a2.275 2.275 0 0 0-1.587-1.636C19.27 1 13.64 1 13.64 1s-5.629 0-7.036.376a2.274 2.274 0 0 0-1.587 1.637A23.726 23.726 0 0 0 4.64 7.34c-.009 1.462.117 2.921.377 4.36a2.275 2.275 0 0 0 1.587 1.571c1.407.376 7.036.376 7.036.376s5.629 0 7.036-.376a2.275 2.275 0 0 0 1.587-1.636c.256-1.417.382-2.855.376-4.295a23.728 23.728 0 0 0-.376-4.361v0Z"/><path d="m11.8 10.016 4.704-2.676L11.8 4.665v5.35Z"/></g><defs><filter id="a" x=".141" y=".5" width="27" height="21.648" filterUnits="userSpaceOnUse" color-interpolation-filters="sRGB"><feFlood flood-opacity="0" result="BackgroundImageFix"/><feColorMatrix in="SourceAlpha" values="0 0 0 0 0 0 0 0 0 0 0 0 0 0 0 0 0 0 127 0" result="hardAlpha"/><feOffset dy="4"/><feGaussianBlur stdDeviation="2"/><feComposite in2="hardAlpha" operator="out"/><feColorMatrix values="0 0 0 0 0 0 0 0 0 0 0 0 0 0 0 0 0 0 0.25 0"/><feBlend in2="BackgroundImageFix" result="effect1_dropShadow_1_252"/><feBlend in="SourceGraphic" in2="effect1_dropShadow_1_252" result="shape"/></filter></defs></svg>